<?xml version="1.0" encoding="utf-8"?>
<!-- Generator: Adobe Illustrator 18.0.0, SVG Export Plug-In . SVG Version: 6.00 Build 0)  -->
<!DOCTYPE svg PUBLIC "-//W3C//DTD SVG 1.1//EN" "http://www.w3.org/Graphics/SVG/1.1/DTD/svg11.dtd">
<svg version="1.1" id="Слой_1" xmlns:ev="http://www.w3.org/2001/xml-events"
	 xmlns="http://www.w3.org/2000/svg" xmlns:xlink="http://www.w3.org/1999/xlink" x="0px" y="0px" viewBox="-77.3 -98 216.7 200"
	 enable-background="new -77.3 -98 216.7 200" xml:space="preserve">
<path fill="#FFFFFF" d="M139.4-36.3L139.4-36.3l-26.7,91.7c0,0,0,0,0,1.7c0,3.3-3.3,6.7-5,6.7c0,0,0,0-1.7,0l0,0H11l0,0
	c-3.3,0-6.7-1.7-6.7-5l-25-91.7c-1.7-1.7-3.3-3.3-3.3-5c0,0,0,0,0-1.7l-11.7-45h-35c-3.3,0-6.7-3.3-6.7-6.7c0-3.3,3.3-6.7,6.7-6.7
	h40l0,0c3.3,0,6.7,1.7,6.7,5l13.3,48.3H131l0,0l0,0l0,0h1.7l0,0c1.7,0,1.7,1.7,3.3,1.7c0,0,0,0,1.7,1.7
	C139.4-39.7,139.4-39.7,139.4-36.3C139.4-38,139.4-38,139.4-36.3z M-5.7-31.3l21.7,80h85l23.3-80H-5.7z M17.7,75.3
	C24.3,75.3,31,82,31,88.7c0,6.7-6.7,13.3-13.3,13.3S4.3,95.3,4.3,88.7C4.3,82,9.3,75.3,17.7,75.3z M84.3,75.3
	c6.7,0,13.3,6.7,13.3,13.3c0,6.7-6.7,13.3-13.3,13.3C77.7,102,71,95.3,71,88.7C71,82,77.7,75.3,84.3,75.3z"/>
</svg>
