<?xml version="1.0" encoding="utf-8"?>
<!-- Generator: Adobe Illustrator 18.0.0, SVG Export Plug-In . SVG Version: 6.00 Build 0)  -->
<!DOCTYPE svg PUBLIC "-//W3C//DTD SVG 1.1//EN" "http://www.w3.org/Graphics/SVG/1.1/DTD/svg11.dtd">
<svg version="1.1" id="Слой_1" xmlns="http://www.w3.org/2000/svg" xmlns:xlink="http://www.w3.org/1999/xlink" x="0px" y="0px"
	 viewBox="0 0 18 18" enable-background="new 0 0 18 18" xml:space="preserve">
<path fill-rule="evenodd" clip-rule="evenodd" fill="none" d="M17.8,17.8c-0.2,0.2-0.5,0.2-0.8,0l-5-5c-1.3,1.1-2.9,1.8-4.8,1.8
	c-4,0-7.3-3.3-7.3-7.3C0,3.3,3.3,0,7.3,0s7.3,3.3,7.3,7.3c0,1.8-0.7,3.5-1.8,4.8l5,5C18.1,17.3,18.1,17.6,17.8,17.8 M13.5,7.3
	c0-3.4-2.8-6.2-6.2-6.2c-3.4,0-6.2,2.8-6.2,6.2c0,3.4,2.8,6.2,6.2,6.2C10.7,13.5,13.5,10.7,13.5,7.3"/>
</svg>
