<svg xmlns="http://www.w3.org/2000/svg" xmlns:xlink="http://www.w3.org/1999/xlink" viewBox="0 0 18 18">
    <defs>
        <path id="a" d="M15.9 0H2.1C1 0 0 1 0 2.1v13.7C0 17 1 18 2.1 18h13.7c1.2 0 2.1-1 2.1-2.1V2.1C18 1 17 0 15.9 0m-2.4 2.3h1.7c.3 0 .6.3.6.6v1.7c0 .3-.3.6-.6.6h-1.7c-.3 0-.6-.3-.6-.6V2.8c0-.3.3-.5.6-.5M9 5.6c1.9 0 3.5 1.5 3.5 3.5 0 1.9-1.5 3.5-3.5 3.5-1.9 0-3.5-1.5-3.5-3.5.1-2 1.6-3.5 3.5-3.5m6.8 10.7H2.3c-.3 0-.6-.3-.6-.6V7.3H4c-.4.4-.5 1.2-.5 1.7 0 3 2.5 5.5 5.5 5.5S14.5 12 14.5 9c0-.5-.1-1.3-.4-1.7h2.3v8.4c-.1.4-.3.6-.6.6"/>
    </defs>
    <clipPath id="b">
        <use xlink:href="#a" overflow="visible"/>
    </clipPath>
    <g clip-path="url(#b)">
        <defs>
            <path id="c" d="M-1240-188H200v300h-1440z"/>
        </defs>
        <clipPath id="d">
            <use xlink:href="#c" overflow="visible"/>
        </clipPath>
        <path clip-path="url(#d)" fill="#9297A3" d="M-5-5h28v28H-5z"/>
    </g>
</svg>
