<?xml version="1.0" encoding="UTF-8"?><!DOCTYPE svg PUBLIC "-//W3C//DTD SVG 1.1//EN" "http://www.w3.org/Graphics/SVG/1.1/DTD/svg11.dtd"><svg xmlns="http://www.w3.org/2000/svg"><symbol id="icon-arrow-right" viewBox="3 8 19 8">
    <path d="M22 12l-4-4v3H3v2h15v3l4-4z"/>
</symbol><symbol id="icon-basket" viewBox="-77.3 -98 216.7 200">
    <path d="M139.4-36.3l-26.7 91.7v1.7c0 3.3-3.3 6.7-5 6.7H11c-3.3 0-6.7-1.7-6.7-5l-25-91.7c-1.7-1.7-3.3-3.3-3.3-5v-1.7l-11.7-45h-35c-3.3 0-6.7-3.3-6.7-6.7 0-3.3 3.3-6.7 6.7-6.7h40c3.3 0 6.7 1.7 6.7 5l13.3 48.3H132.7c1.7 0 1.7 1.7 3.3 1.7l1.7 1.7c1.7 1.6 1.7 1.6 1.7 5 0-1.7 0-1.7 0 0zm-145.1 5l21.7 80h85l23.3-80h-130zM17.7 75.3C24.3 75.3 31 82 31 88.7S24.3 102 17.7 102 4.3 95.3 4.3 88.7c0-6.7 5-13.4 13.4-13.4zm66.6 0c6.7 0 13.3 6.7 13.3 13.3 0 6.7-6.7 13.3-13.3 13.3-6.6.1-13.3-6.6-13.3-13.2 0-6.7 6.7-13.4 13.3-13.4z"/>
</symbol><symbol id="icon-facebook" viewBox="0 0 10 19">
    <title>
        facebook
    </title>
    <path d="M9.766.157v2.946H8.014c-.64 0-1.071.134-1.295.402-.223.268-.335.67-.335 1.205v2.11h3.27l-.435 3.303H6.384v8.471H2.97v-8.47H.123V6.82H2.97V4.387c0-1.384.387-2.457 1.161-3.22C4.904.404 5.934.023 7.222.023c1.093 0 1.941.045 2.544.134z" fill-rule="evenodd"/>
</symbol><symbol id="icon-fb" viewBox="0 0 11 20">
    <path d="M10.4 3.5c-.6-.1-1.3-.2-1.9-.2-.8 0-2.5.4-2.5 1.3v2.1h4v3.5H6V20H2v-9.8H0V6.7h2V4.9C2 2.2 3.4 0 6.7 0c1.1 0 3.2.1 4.3.4l-.6 3.1z"/>
</symbol><symbol id="icon-inst" viewBox="0 0 18 18">
    <path d="M15.9 0H2.1C1 0 0 1 0 2.1v13.7C0 17 1 18 2.1 18h13.7c1.2 0 2.1-1 2.1-2.1V2.1C18 1 17 0 15.9 0m-2.4 2.3h1.7c.3 0 .6.3.6.6v1.7c0 .3-.3.6-.6.6h-1.7c-.3 0-.6-.3-.6-.6V2.8c0-.3.3-.5.6-.5M9 5.6c1.9 0 3.5 1.5 3.5 3.5 0 1.9-1.5 3.5-3.5 3.5-1.9 0-3.5-1.5-3.5-3.5.1-2 1.6-3.5 3.5-3.5m6.8 10.7H2.3c-.3 0-.6-.3-.6-.6V7.3H4c-.4.4-.5 1.2-.5 1.7 0 3 2.5 5.5 5.5 5.5S14.5 12 14.5 9c0-.5-.1-1.3-.4-1.7h2.3v8.4c-.1.4-.3.6-.6.6"/>
</symbol><symbol id="icon-search" viewBox="0 0 18 18">
    <path clip-rule="evenodd" d="M17.8 17.8c-.2.2-.5.2-.8 0l-5-5c-1.3 1.1-2.9 1.8-4.8 1.8-4 0-7.3-3.3-7.3-7.3C0 3.3 3.3 0 7.3 0s7.3 3.3 7.3 7.3c0 1.8-.7 3.5-1.8 4.8l5 5c.3.2.3.5 0 .7M13.5 7.3c0-3.4-2.8-6.2-6.2-6.2-3.4 0-6.2 2.8-6.2 6.2 0 3.4 2.8 6.2 6.2 6.2 3.4 0 6.2-2.8 6.2-6.2"/>
</symbol><symbol id="icon-tw" viewBox="0 0 22 15">
    <path d="M17.5 2.3s0-.1 0 0c-.9-.8-1.9-1.2-2.9-1 1-.2 1.6-.5 1.7-.7 0-.2 0-.3-.2-.3-.5 0-1 .2-1.4.3.5-.3.7-.5.7-.7-.5 0-1 .3-1.7.8.2-.3.3-.5.2-.7-.3.2-.5.3-.7.7-.5.5-.9.8-1 1.3-.7 1.2-1.2 2.2-1.6 3.4h-.2c-.4-.4-.9-.9-1.6-1.2-.7-.5-1.5-.8-2.6-1.4-1-.5-2.1-1-3.3-1.3 0 1.2.5 2.2 1.7 2.8-.3 0-.9 0-1.2.2 0 1 .9 1.8 2.4 2.2-.5 0-1 .2-1.6.5.5 1 1.4 1.3 2.8 1.3-.1.2-.4.4-.4.4-.2.1-.4.5-.2.8.3.5.7.7 1.6.7a5.8 5.8 0 0 1-4.5 1.7c-1 0-2.3-.5-3.5-1.5 1.2 1.7 2.9 3 5 3.9 2.4.7 4.9.8 7.1.2 2.3-.7 4.3-2 5.9-3.9.7-1 1.2-2 1.4-3 1.2 0 2.1-.3 2.6-1-.3.2-1.2.2-2.4-.2 1.2-.2 2.1-.5 2.3-1.2-.9.3-1.7.3-2.6 0-.2-1.2-.8-2.2-1.8-3.1z"/>
</symbol></svg>