<svg xmlns="http://www.w3.org/2000/svg" xmlns:xlink="http://www.w3.org/1999/xlink" viewBox="0 0 22 15">
    <defs>
        <path id="a" d="M17.5 2.3s0-.1 0 0c-.9-.8-1.9-1.2-2.9-1 1-.2 1.6-.5 1.7-.7 0-.2 0-.3-.2-.3-.5 0-1 .2-1.4.3.5-.3.7-.5.7-.7-.5 0-1 .3-1.7.8.2-.3.3-.5.2-.7-.3.2-.5.3-.7.7-.5.5-.9.8-1 1.3-.7 1.2-1.2 2.2-1.6 3.4h-.2c-.4-.4-.9-.9-1.6-1.2-.7-.5-1.5-.8-2.6-1.4-1-.5-2.1-1-3.3-1.3 0 1.2.5 2.2 1.7 2.8-.3 0-.9 0-1.2.2 0 1 .9 1.8 2.4 2.2-.5 0-1 .2-1.6.5.5 1 1.4 1.3 2.8 1.3-.1.2-.4.4-.4.4-.2.1-.4.5-.2.8.3.5.7.7 1.6.7a5.8 5.8 0 0 1-4.5 1.7c-1 0-2.3-.5-3.5-1.5 1.2 1.7 2.9 3 5 3.9 2.4.7 4.9.8 7.1.2 2.3-.7 4.3-2 5.9-3.9.7-1 1.2-2 1.4-3 1.2 0 2.1-.3 2.6-1-.3.2-1.2.2-2.4-.2 1.2-.2 2.1-.5 2.3-1.2-.9.3-1.7.3-2.6 0-.2-1.2-.8-2.2-1.8-3.1z"/>
    </defs>
    <clipPath id="b">
        <use xlink:href="#a" overflow="visible"/>
    </clipPath>
    <g clip-path="url(#b)">
        <defs>
            <path id="c" d="M-1237-149H203v300h-1440z"/>
        </defs>
        <clipPath id="d">
            <use xlink:href="#c" overflow="visible"/>
        </clipPath>
        <path clip-path="url(#d)" fill="#9297A3" d="M-5-5h32v25H-5z"/>
    </g>
</svg>
